<svg width="381" height="412" viewBox="0 0 381 412" fill="none" xmlns="http://www.w3.org/2000/svg">
<mask id="path-1-inside-1_32_70" fill="white">
<path d="M173.5 8.335C164.437 17.782 157.816 28.552 153.866 40.27C152.417 44.567 150.952 48.071 150.61 48.056C150.268 48.041 147.404 46.725 144.244 45.132C135.876 40.912 125.598 37.996 116.655 37.303C107.51 36.594 107.037 36.948 107.019 44.506C106.988 57.02 112.165 76.565 118.272 86.994C123.458 95.85 137.142 108.789 146.505 113.692C159.299 120.389 168.051 122.433 184 122.446C200.008 122.46 206.061 121.084 219.902 114.285C227.608 110.499 230.868 108.119 237.98 101.086C253.14 86.096 261 67.046 261 45.293V36.71L252.113 37.286C242.221 37.927 227.1 42.4 220.771 46.557C216.283 49.505 216 49.537 216 47.091C216 43.109 209.654 28.793 204.349 20.808C197.139 9.955 187.425 0.00800549 184.029 5.49062e-06C182.162 -0.00399451 179.407 2.177 173.5 8.335Z"/>
<path d="M188.436 13.109C187.973 13.859 188.112 14.055 188.804 13.627C191.187 12.154 206.025 34.538 204.404 37.161C204 37.815 204.127 38.046 204.697 37.693C205.932 36.93 208.368 44.601 207.392 46.181C206.983 46.843 207.135 47.041 207.757 46.656C208.412 46.251 209.089 47.575 209.515 50.097C210.144 53.816 209.906 54.508 206.946 57.562C205.151 59.413 203.335 60.713 202.911 60.451C202.159 59.986 200.546 61.825 200.515 63.181C200.473 65.041 192.632 75.896 191.732 75.34C191.112 74.957 190.992 75.184 191.436 75.902C191.845 76.564 191.446 78.654 190.549 80.545C189.651 82.436 187.849 86.8 186.543 90.244C184.633 95.284 184.028 96.116 183.445 94.506C178.019 79.527 170.662 67.009 162.139 58.255C159.474 55.517 158 53.093 158 51.446C158 50.015 158.436 49.157 158.989 49.499C159.535 49.837 159.734 49.476 159.433 48.692C158.656 46.668 162.627 35.395 166.192 29.506C171.564 20.63 177.036 13.913 178.302 14.64C178.961 15.018 179.162 14.954 178.748 14.497C177.709 13.353 181.004 9.903 182.384 10.69C182.998 11.04 183.166 10.958 182.759 10.508C182.351 10.058 182.485 9.127 183.055 8.439C183.863 7.466 184.658 7.71101 186.638 9.54601C188.144 10.942 188.878 12.395 188.436 13.109Z"/>
<path d="M130.529 47.163C138.342 49.728 148.59 55.411 148.225 56.976C148.074 57.624 148.431 57.857 149.019 57.494C150.42 56.628 153.165 58.93 152.334 60.274C151.963 60.875 152.174 61.016 152.835 60.608C155.92 58.701 173.439 82.869 171.383 86.195C170.978 86.85 171.14 87.037 171.773 86.646C173.084 85.836 174.421 89.516 173.41 91.152C172.982 91.843 173.125 92.047 173.763 91.653C175.058 90.852 178.445 100.404 177.624 102.543C177.315 103.348 177.555 104.006 178.156 104.006C178.851 104.006 179.023 105.19 178.626 107.256C178.183 109.567 178.287 110.073 178.986 109.006C179.76 107.825 179.973 108.073 179.985 110.174C179.993 111.642 180.282 113.577 180.627 114.475C181.176 115.907 180.59 116.029 175.877 115.465C168.581 114.592 159 111.952 159 110.815C159 110.305 158.57 110.154 158.044 110.479C155.354 112.141 135.148 99.193 136.647 96.767C137.011 96.179 136.861 95.974 136.313 96.313C134.84 97.223 128.613 90.441 129.542 88.938C130.017 88.17 129.898 87.951 129.231 88.363C126.771 89.883 119.312 75.091 116.696 63.506C115.827 59.656 114.835 53.632 114.493 50.119L113.87 43.731L119.076 44.422C121.939 44.801 127.093 46.035 130.529 47.163Z"/>
<path d="M253.985 48.756C253.973 52.362 253.717 53.145 252.919 52.006C252.107 50.846 252.019 51.038 252.533 52.855C253.511 56.314 252.101 64.741 250.848 62.925C250.132 61.888 250.04 62.113 250.504 63.762C251.562 67.522 244.884 83.67 242.803 82.384C242.136 81.972 241.972 82.151 242.392 82.831C242.777 83.454 242.59 84.903 241.977 86.05C241.156 87.582 240.525 87.857 239.597 87.086C238.678 86.324 238.333 86.431 238.333 87.478C238.333 88.27 238.708 88.686 239.167 88.403C239.625 88.12 240 88.265 240 88.726C240 90.105 227.861 101.488 222.695 104.954C220.052 106.727 217.216 107.919 216.393 107.603C215.57 107.287 215.138 107.421 215.435 107.9C216.792 110.097 190.218 117.557 188.205 115.544C187.324 114.663 189.608 102.552 192.135 94.71C193.682 89.907 194.598 88.294 195.257 89.21C195.918 90.13 196.015 89.971 195.589 88.662C194.056 83.941 207.156 65.347 217.5 57.563C226.884 50.502 242.548 44.235 251.25 44.061C253.874 44.009 253.999 44.224 253.985 48.756Z"/>
<path d="M56 88.006C58.871 85.135 64.058 85.375 67.009 88.515C68.541 90.146 70.007 90.821 71.198 90.443C73.352 89.759 79.565 93.325 81.048 96.095C81.687 97.29 83.138 98.006 84.919 98.006C88.592 98.006 93.704 103.545 97.46 111.593C98.978 114.845 100.898 118.972 101.727 120.763C103.897 125.451 112.43 132.821 121.581 137.91C155.618 156.84 165.425 170.864 166.057 201.506C166.324 214.429 166.293 214.679 164.373 215.416C161.112 216.668 160 214.143 160 205.48C160 194.722 156.887 179.406 153.397 172.994C149.608 166.033 141.787 157.941 133.775 152.694C130.076 150.271 127.376 147.928 127.775 147.487C128.174 147.046 127.975 146.986 127.333 147.354C125.83 148.214 109.774 139.059 103.74 133.902C100.125 130.812 97.879 127.434 93.573 118.613C87.453 106.073 84.199 101.754 86.483 109.201C91 123.929 94.964 132.922 101.034 142.215C104.849 148.058 106.55 149.596 114.193 154.12C119.021 156.978 123.735 160.16 124.668 161.192C126.259 162.949 126.26 163.175 124.686 164.749C123.111 166.323 122.546 166.183 115.752 162.54C103.297 155.86 91.467 148.231 86.147 143.448C79.949 137.876 75.171 128.702 71.072 114.506C66.919 100.12 64.666 94.565 62.841 94.214C61.071 93.873 61.386 96.781 64.552 110.006C74.308 150.754 76.168 153.547 107.742 174.893C124.887 186.484 129.979 193.084 132.333 206.766C133.241 212.044 133.17 213.265 131.882 214.552C129.583 216.852 127.13 215.307 126.496 211.159C124.388 197.366 119.655 190.832 104.321 180.547C95.473 174.611 84.512 166.452 80.185 162.578C74.523 157.51 67.955 146.571 64.961 137.226C61.804 127.369 54 95.069 54 91.856C54 90.839 54.9 89.106 56 88.006Z"/>
<path d="M300.872 88.256C299.457 89.572 297.51 90.371 296.183 90.181C294.585 89.952 292.673 91.116 289.707 94.124C286.986 96.884 284.755 98.304 283.39 98.145C279.611 97.705 275.281 102.728 269.455 114.307C266.357 120.467 262.849 126.556 261.661 127.839C259.421 130.257 251.623 135.203 237 143.481C216.497 155.086 206.393 167.631 202.581 186.214C200.563 196.05 200.438 213.295 202.373 214.901C204.123 216.353 206.973 215.294 207.088 213.149C207.137 212.245 207.366 207.456 207.597 202.506C208.948 173.618 217.069 161.731 246.536 145.506C264.673 135.52 268.917 131.423 275.004 118.019C278.132 111.133 281.198 106.006 282.187 106.006C283.357 106.006 277.352 122.476 272.517 132.527C266.91 144.185 262.539 148.938 251.5 155.384C242.15 160.844 239.667 164.131 243.882 165.468C247.492 166.614 277.018 148.862 283.842 141.442C290.095 134.644 293.205 128.082 297.819 111.953C301.575 98.822 304.157 93.006 306.232 93.006C306.804 93.006 306.974 94.184 306.628 95.756C306.295 97.268 305.308 102.106 304.435 106.506C302.359 116.974 298.385 131.901 295.925 138.477C291.441 150.461 283.521 158.733 263.955 171.867C250.589 180.839 244.098 186.433 240.589 192.006C235.219 200.534 232.856 213.161 236.222 215.344C238.765 216.993 239.9 215.322 241.53 207.534C244.188 194.829 247.615 190.953 268.746 176.752C275.769 172.033 284.7 165.006 288.593 161.135C295.762 154.009 302.724 142.986 301.404 140.851C300.962 140.136 301.13 139.969 301.845 140.411C302.48 140.803 303 140.975 303 140.792C303 140.61 304.124 136.03 305.497 130.615C308.192 119.993 312.437 100.874 313.478 94.673C314.413 89.108 312.138 86.006 307.123 86.006C304.534 86.006 302.508 86.735 300.872 88.256Z"/>
<path d="M233.405 94.256L231.5 96.506L233.75 94.601C235.864 92.811 236.455 92.006 235.655 92.006C235.465 92.006 234.453 93.018 233.405 94.256Z"/>
<path d="M76.341 101.756C77.647 104.369 80.179 110.781 81.968 116.006C83.758 121.231 86.611 128.431 88.309 132.006C92.524 140.882 92.537 140.977 88.981 137.006C83.821 131.243 80.212 123.044 75.071 105.398C73.932 101.489 73 98.001 73 97.648C73 95.977 74.173 97.419 76.341 101.756Z"/>
<path d="M293.48 103.507C288.418 122.158 284.844 130.603 279.437 136.687L276.043 140.506L278.983 134.488C280.601 131.179 283.928 122.72 286.377 115.692C290.404 104.139 293.59 97.263 294.498 98.171C294.684 98.357 294.226 100.758 293.48 103.507Z"/>
<path d="M191 100.947C191 99.509 191.717 99.826 192.382 101.558C192.723 102.448 192.555 102.849 191.989 102.499C191.445 102.163 191 101.465 191 100.947Z"/>
<path d="M152.218 327.972L152.218 327.997C152.214 327.206 152.21 326.404 152.206 325.591C152.21 326.396 152.214 327.189 152.218 327.972Z"/>
<path d="M2.114 227.006C5.331 227.006 11.629 230.935 13.135 233.882C14.205 235.974 14.546 249.485 14.82 300.506C15.01 335.706 14.853 368.324 14.473 372.991C13.823 380.963 13.575 381.671 10.362 384.701C8.48101 386.475 5.38 388.219 3.471 388.577C0.461002 389.142 0 389.612 0 392.117V395.006H18.378C33.423 395.006 36.979 394.736 37.989 393.519C39.745 391.404 38.639 389.39 35.336 388.687C30.141 387.582 26.192 384.36 25.067 380.308C24.373 377.81 24.043 355.24 24.104 314.506L24.196 252.506L26.673 258.006C28.035 261.031 40.029 288.931 53.325 320.006C75.632 372.141 77.684 376.506 79.887 376.506C80.1958 376.506 80.4597 376.522 80.7151 376.484C82.6131 376.195 84.0466 372.852 100.043 337.006C113.523 306.8 133.17 263.539 133.624 263.066C133.857 262.824 133.924 289.451 133.773 322.236L133.5 381.846L131.078 384.423C129.746 385.841 127.174 387.537 125.363 388.192C121.847 389.463 120.71 391.086 121.638 393.506C122.125 394.773 125.458 395.006 143.107 395.006H164L163.99 392.256C163.982 390.011 163.265 389.206 160.089 387.873C158.506 387.208 157.254 386.827 156.261 386.094C152.246 383.132 152.467 374.428 152.167 318.051C151.776 244.727 152.177 234.074 155.473 230.242C158.858 226.307 164.316 226.557 168.127 230.822L171 234.038V398.16L168.167 400.993C166.609 402.551 163.496 404.376 161.249 405.05C157.326 406.225 155.495 408.615 156.873 410.763C157.27 411.383 181.939 411.775 224.236 411.834C288.121 411.923 291.014 411.848 291.959 410.083C293.447 407.302 299 386.33 299 383.489C299 381.411 298.523 381.006 296.078 381.006C293.596 381.006 292.971 381.562 291.938 384.693C291.269 386.721 288.589 390.512 285.984 393.118C278.301 400.8 275.791 401.272 240.022 401.766C219.127 402.054 208.36 401.831 205.778 401.058C204.538 400.686 203.522 400.514 202.691 400.026C198.696 397.681 198.974 388.057 199.227 314.115C199.494 235.848 199.541 234.17 201.498 232.008C204.117 229.114 208.287 227.006 211.391 227.006C214.357 227.006 215.359 225.713 214.497 222.997C213.881 221.057 212.933 221.006 177.555 221.006C149.708 221.006 141.011 221.297 140.243 222.256C139.692 222.944 135.623 231.831 131.201 242.006C126.779 252.181 116.325 276.031 107.97 295.006C99.615 313.981 92.127 331.017 91.331 332.864C90.534 334.711 89.739 336.061 89.562 335.864C89.386 335.667 87.901 332.356 86.262 328.506C84.623 324.656 79.206 312.056 74.224 300.506C69.242 288.956 59.935 267.361 53.541 252.517C47.147 237.672 41.25 224.51 40.435 223.267C38.981 221.047 38.599 221.006 19.477 221.006H0V224.006C0 226.393 0.431999 227.006 2.114 227.006Z"/>
<path d="M280.25 221.655C277.953 222.606 278.929 225.918 281.97 227.491C285.224 229.173 287 231.779 287 234.871C287 236.805 280.346 255.833 253.172 331.607C238.89 371.431 237.104 375.87 233.412 380.71C230.84 384.083 225.711 387.191 220.75 388.383C218.513 388.921 218 389.6 218 392.025V395.006H262V392.106C262 389.46 261.57 389.102 257.104 388.031C252.131 386.838 248.719 384.127 247.625 380.5C247.263 379.298 249.254 372.081 252.59 362.5C255.654 353.703 259.29 343.244 260.671 339.256L263.181 332.006H320.823L324.325 342.256C326.252 347.893 329.666 357.829 331.914 364.336C334.161 370.842 336 377.644 336 379.451C336 383.643 332.935 387.542 328.484 389.011C325.772 389.906 325 390.702 325 392.599V395.038L380.5 394.506L380.82 392.251C381.081 390.417 380.316 389.642 376.728 388.104C371.675 385.938 366.654 380.354 364.51 374.518C363.7 372.312 359.634 360.606 355.476 348.506C351.318 336.406 346.181 321.556 344.061 315.506C341.942 309.456 337.706 297.306 334.649 288.506C331.592 279.706 325.085 261.031 320.19 247.006L311.29 221.506L296.395 221.322C288.203 221.221 280.938 221.371 280.25 221.655Z"/>
<path d="M317.541 322.506L292.621 322.773C278.915 322.921 267.511 322.851 267.279 322.618C266.909 322.249 273.405 303.506 288.331 261.877C292.465 250.347 292.51 250.275 293.705 253.377C294.368 255.098 300.003 271.356 306.226 289.506L317.541 322.506Z"/>
</mask>
<path d="M173.5 8.335C164.437 17.782 157.816 28.552 153.866 40.27C152.417 44.567 150.952 48.071 150.61 48.056C150.268 48.041 147.404 46.725 144.244 45.132C135.876 40.912 125.598 37.996 116.655 37.303C107.51 36.594 107.037 36.948 107.019 44.506C106.988 57.02 112.165 76.565 118.272 86.994C123.458 95.85 137.142 108.789 146.505 113.692C159.299 120.389 168.051 122.433 184 122.446C200.008 122.46 206.061 121.084 219.902 114.285C227.608 110.499 230.868 108.119 237.98 101.086C253.14 86.096 261 67.046 261 45.293V36.71L252.113 37.286C242.221 37.927 227.1 42.4 220.771 46.557C216.283 49.505 216 49.537 216 47.091C216 43.109 209.654 28.793 204.349 20.808C197.139 9.955 187.425 0.00800549 184.029 5.49062e-06C182.162 -0.00399451 179.407 2.177 173.5 8.335Z" stroke="#F2C7B7" stroke-width="2" mask="url(#path-1-inside-1_32_70)"/>
<path d="M188.436 13.109C187.973 13.859 188.112 14.055 188.804 13.627C191.187 12.154 206.025 34.538 204.404 37.161C204 37.815 204.127 38.046 204.697 37.693C205.932 36.93 208.368 44.601 207.392 46.181C206.983 46.843 207.135 47.041 207.757 46.656C208.412 46.251 209.089 47.575 209.515 50.097C210.144 53.816 209.906 54.508 206.946 57.562C205.151 59.413 203.335 60.713 202.911 60.451C202.159 59.986 200.546 61.825 200.515 63.181C200.473 65.041 192.632 75.896 191.732 75.34C191.112 74.957 190.992 75.184 191.436 75.902C191.845 76.564 191.446 78.654 190.549 80.545C189.651 82.436 187.849 86.8 186.543 90.244C184.633 95.284 184.028 96.116 183.445 94.506C178.019 79.527 170.662 67.009 162.139 58.255C159.474 55.517 158 53.093 158 51.446C158 50.015 158.436 49.157 158.989 49.499C159.535 49.837 159.734 49.476 159.433 48.692C158.656 46.668 162.627 35.395 166.192 29.506C171.564 20.63 177.036 13.913 178.302 14.64C178.961 15.018 179.162 14.954 178.748 14.497C177.709 13.353 181.004 9.903 182.384 10.69C182.998 11.04 183.166 10.958 182.759 10.508C182.351 10.058 182.485 9.127 183.055 8.439C183.863 7.466 184.658 7.71101 186.638 9.54601C188.144 10.942 188.878 12.395 188.436 13.109Z" stroke="#F2C7B7" stroke-width="2" mask="url(#path-1-inside-1_32_70)"/>
<path d="M130.529 47.163C138.342 49.728 148.59 55.411 148.225 56.976C148.074 57.624 148.431 57.857 149.019 57.494C150.42 56.628 153.165 58.93 152.334 60.274C151.963 60.875 152.174 61.016 152.835 60.608C155.92 58.701 173.439 82.869 171.383 86.195C170.978 86.85 171.14 87.037 171.773 86.646C173.084 85.836 174.421 89.516 173.41 91.152C172.982 91.843 173.125 92.047 173.763 91.653C175.058 90.852 178.445 100.404 177.624 102.543C177.315 103.348 177.555 104.006 178.156 104.006C178.851 104.006 179.023 105.19 178.626 107.256C178.183 109.567 178.287 110.073 178.986 109.006C179.76 107.825 179.973 108.073 179.985 110.174C179.993 111.642 180.282 113.577 180.627 114.475C181.176 115.907 180.59 116.029 175.877 115.465C168.581 114.592 159 111.952 159 110.815C159 110.305 158.57 110.154 158.044 110.479C155.354 112.141 135.148 99.193 136.647 96.767C137.011 96.179 136.861 95.974 136.313 96.313C134.84 97.223 128.613 90.441 129.542 88.938C130.017 88.17 129.898 87.951 129.231 88.363C126.771 89.883 119.312 75.091 116.696 63.506C115.827 59.656 114.835 53.632 114.493 50.119L113.87 43.731L119.076 44.422C121.939 44.801 127.093 46.035 130.529 47.163Z" stroke="#F2C7B7" stroke-width="2" mask="url(#path-1-inside-1_32_70)"/>
<path d="M253.985 48.756C253.973 52.362 253.717 53.145 252.919 52.006C252.107 50.846 252.019 51.038 252.533 52.855C253.511 56.314 252.101 64.741 250.848 62.925C250.132 61.888 250.04 62.113 250.504 63.762C251.562 67.522 244.884 83.67 242.803 82.384C242.136 81.972 241.972 82.151 242.392 82.831C242.777 83.454 242.59 84.903 241.977 86.05C241.156 87.582 240.525 87.857 239.597 87.086C238.678 86.324 238.333 86.431 238.333 87.478C238.333 88.27 238.708 88.686 239.167 88.403C239.625 88.12 240 88.265 240 88.726C240 90.105 227.861 101.488 222.695 104.954C220.052 106.727 217.216 107.919 216.393 107.603C215.57 107.287 215.138 107.421 215.435 107.9C216.792 110.097 190.218 117.557 188.205 115.544C187.324 114.663 189.608 102.552 192.135 94.71C193.682 89.907 194.598 88.294 195.257 89.21C195.918 90.13 196.015 89.971 195.589 88.662C194.056 83.941 207.156 65.347 217.5 57.563C226.884 50.502 242.548 44.235 251.25 44.061C253.874 44.009 253.999 44.224 253.985 48.756Z" stroke="#F2C7B7" stroke-width="2" mask="url(#path-1-inside-1_32_70)"/>
<path d="M56 88.006C58.871 85.135 64.058 85.375 67.009 88.515C68.541 90.146 70.007 90.821 71.198 90.443C73.352 89.759 79.565 93.325 81.048 96.095C81.687 97.29 83.138 98.006 84.919 98.006C88.592 98.006 93.704 103.545 97.46 111.593C98.978 114.845 100.898 118.972 101.727 120.763C103.897 125.451 112.43 132.821 121.581 137.91C155.618 156.84 165.425 170.864 166.057 201.506C166.324 214.429 166.293 214.679 164.373 215.416C161.112 216.668 160 214.143 160 205.48C160 194.722 156.887 179.406 153.397 172.994C149.608 166.033 141.787 157.941 133.775 152.694C130.076 150.271 127.376 147.928 127.775 147.487C128.174 147.046 127.975 146.986 127.333 147.354C125.83 148.214 109.774 139.059 103.74 133.902C100.125 130.812 97.879 127.434 93.573 118.613C87.453 106.073 84.199 101.754 86.483 109.201C91 123.929 94.964 132.922 101.034 142.215C104.849 148.058 106.55 149.596 114.193 154.12C119.021 156.978 123.735 160.16 124.668 161.192C126.259 162.949 126.26 163.175 124.686 164.749C123.111 166.323 122.546 166.183 115.752 162.54C103.297 155.86 91.467 148.231 86.147 143.448C79.949 137.876 75.171 128.702 71.072 114.506C66.919 100.12 64.666 94.565 62.841 94.214C61.071 93.873 61.386 96.781 64.552 110.006C74.308 150.754 76.168 153.547 107.742 174.893C124.887 186.484 129.979 193.084 132.333 206.766C133.241 212.044 133.17 213.265 131.882 214.552C129.583 216.852 127.13 215.307 126.496 211.159C124.388 197.366 119.655 190.832 104.321 180.547C95.473 174.611 84.512 166.452 80.185 162.578C74.523 157.51 67.955 146.571 64.961 137.226C61.804 127.369 54 95.069 54 91.856C54 90.839 54.9 89.106 56 88.006Z" stroke="#F2C7B7" stroke-width="2" mask="url(#path-1-inside-1_32_70)"/>
<path d="M300.872 88.256C299.457 89.572 297.51 90.371 296.183 90.181C294.585 89.952 292.673 91.116 289.707 94.124C286.986 96.884 284.755 98.304 283.39 98.145C279.611 97.705 275.281 102.728 269.455 114.307C266.357 120.467 262.849 126.556 261.661 127.839C259.421 130.257 251.623 135.203 237 143.481C216.497 155.086 206.393 167.631 202.581 186.214C200.563 196.05 200.438 213.295 202.373 214.901C204.123 216.353 206.973 215.294 207.088 213.149C207.137 212.245 207.366 207.456 207.597 202.506C208.948 173.618 217.069 161.731 246.536 145.506C264.673 135.52 268.917 131.423 275.004 118.019C278.132 111.133 281.198 106.006 282.187 106.006C283.357 106.006 277.352 122.476 272.517 132.527C266.91 144.185 262.539 148.938 251.5 155.384C242.15 160.844 239.667 164.131 243.882 165.468C247.492 166.614 277.018 148.862 283.842 141.442C290.095 134.644 293.205 128.082 297.819 111.953C301.575 98.822 304.157 93.006 306.232 93.006C306.804 93.006 306.974 94.184 306.628 95.756C306.295 97.268 305.308 102.106 304.435 106.506C302.359 116.974 298.385 131.901 295.925 138.477C291.441 150.461 283.521 158.733 263.955 171.867C250.589 180.839 244.098 186.433 240.589 192.006C235.219 200.534 232.856 213.161 236.222 215.344C238.765 216.993 239.9 215.322 241.53 207.534C244.188 194.829 247.615 190.953 268.746 176.752C275.769 172.033 284.7 165.006 288.593 161.135C295.762 154.009 302.724 142.986 301.404 140.851C300.962 140.136 301.13 139.969 301.845 140.411C302.48 140.803 303 140.975 303 140.792C303 140.61 304.124 136.03 305.497 130.615C308.192 119.993 312.437 100.874 313.478 94.673C314.413 89.108 312.138 86.006 307.123 86.006C304.534 86.006 302.508 86.735 300.872 88.256Z" stroke="#F2C7B7" stroke-width="2" mask="url(#path-1-inside-1_32_70)"/>
<path d="M233.405 94.256L231.5 96.506L233.75 94.601C235.864 92.811 236.455 92.006 235.655 92.006C235.465 92.006 234.453 93.018 233.405 94.256Z" stroke="#F2C7B7" stroke-width="2" mask="url(#path-1-inside-1_32_70)"/>
<path d="M76.341 101.756C77.647 104.369 80.179 110.781 81.968 116.006C83.758 121.231 86.611 128.431 88.309 132.006C92.524 140.882 92.537 140.977 88.981 137.006C83.821 131.243 80.212 123.044 75.071 105.398C73.932 101.489 73 98.001 73 97.648C73 95.977 74.173 97.419 76.341 101.756Z" stroke="#F2C7B7" stroke-width="2" mask="url(#path-1-inside-1_32_70)"/>
<path d="M293.48 103.507C288.418 122.158 284.844 130.603 279.437 136.687L276.043 140.506L278.983 134.488C280.601 131.179 283.928 122.72 286.377 115.692C290.404 104.139 293.59 97.263 294.498 98.171C294.684 98.357 294.226 100.758 293.48 103.507Z" stroke="#F2C7B7" stroke-width="2" mask="url(#path-1-inside-1_32_70)"/>
<path d="M191 100.947C191 99.509 191.717 99.826 192.382 101.558C192.723 102.448 192.555 102.849 191.989 102.499C191.445 102.163 191 101.465 191 100.947Z" stroke="#F2C7B7" stroke-width="2" mask="url(#path-1-inside-1_32_70)"/>
<path d="M152.218 327.972L152.218 327.997C152.214 327.206 152.21 326.404 152.206 325.591C152.21 326.396 152.214 327.189 152.218 327.972Z" stroke="#F2C7B7" stroke-width="2" mask="url(#path-1-inside-1_32_70)"/>
<path d="M2.114 227.006C5.331 227.006 11.629 230.935 13.135 233.882C14.205 235.974 14.546 249.485 14.82 300.506C15.01 335.706 14.853 368.324 14.473 372.991C13.823 380.963 13.575 381.671 10.362 384.701C8.48101 386.475 5.38 388.219 3.471 388.577C0.461002 389.142 0 389.612 0 392.117V395.006H18.378C33.423 395.006 36.979 394.736 37.989 393.519C39.745 391.404 38.639 389.39 35.336 388.687C30.141 387.582 26.192 384.36 25.067 380.308C24.373 377.81 24.043 355.24 24.104 314.506L24.196 252.506L26.673 258.006C28.035 261.031 40.029 288.931 53.325 320.006C75.632 372.141 77.684 376.506 79.887 376.506C80.1958 376.506 80.4597 376.522 80.7151 376.484C82.6131 376.195 84.0466 372.852 100.043 337.006C113.523 306.8 133.17 263.539 133.624 263.066C133.857 262.824 133.924 289.451 133.773 322.236L133.5 381.846L131.078 384.423C129.746 385.841 127.174 387.537 125.363 388.192C121.847 389.463 120.71 391.086 121.638 393.506C122.125 394.773 125.458 395.006 143.107 395.006H164L163.99 392.256C163.982 390.011 163.265 389.206 160.089 387.873C158.506 387.208 157.254 386.827 156.261 386.094C152.246 383.132 152.467 374.428 152.167 318.051C151.776 244.727 152.177 234.074 155.473 230.242C158.858 226.307 164.316 226.557 168.127 230.822L171 234.038V398.16L168.167 400.993C166.609 402.551 163.496 404.376 161.249 405.05C157.326 406.225 155.495 408.615 156.873 410.763C157.27 411.383 181.939 411.775 224.236 411.834C288.121 411.923 291.014 411.848 291.959 410.083C293.447 407.302 299 386.33 299 383.489C299 381.411 298.523 381.006 296.078 381.006C293.596 381.006 292.971 381.562 291.938 384.693C291.269 386.721 288.589 390.512 285.984 393.118C278.301 400.8 275.791 401.272 240.022 401.766C219.127 402.054 208.36 401.831 205.778 401.058C204.538 400.686 203.522 400.514 202.691 400.026C198.696 397.681 198.974 388.057 199.227 314.115C199.494 235.848 199.541 234.17 201.498 232.008C204.117 229.114 208.287 227.006 211.391 227.006C214.357 227.006 215.359 225.713 214.497 222.997C213.881 221.057 212.933 221.006 177.555 221.006C149.708 221.006 141.011 221.297 140.243 222.256C139.692 222.944 135.623 231.831 131.201 242.006C126.779 252.181 116.325 276.031 107.97 295.006C99.615 313.981 92.127 331.017 91.331 332.864C90.534 334.711 89.739 336.061 89.562 335.864C89.386 335.667 87.901 332.356 86.262 328.506C84.623 324.656 79.206 312.056 74.224 300.506C69.242 288.956 59.935 267.361 53.541 252.517C47.147 237.672 41.25 224.51 40.435 223.267C38.981 221.047 38.599 221.006 19.477 221.006H0V224.006C0 226.393 0.431999 227.006 2.114 227.006Z" stroke="#F2C7B7" stroke-width="2" mask="url(#path-1-inside-1_32_70)"/>
<path d="M280.25 221.655C277.953 222.606 278.929 225.918 281.97 227.491C285.224 229.173 287 231.779 287 234.871C287 236.805 280.346 255.833 253.172 331.607C238.89 371.431 237.104 375.87 233.412 380.71C230.84 384.083 225.711 387.191 220.75 388.383C218.513 388.921 218 389.6 218 392.025V395.006H262V392.106C262 389.46 261.57 389.102 257.104 388.031C252.131 386.838 248.719 384.127 247.625 380.5C247.263 379.298 249.254 372.081 252.59 362.5C255.654 353.703 259.29 343.244 260.671 339.256L263.181 332.006H320.823L324.325 342.256C326.252 347.893 329.666 357.829 331.914 364.336C334.161 370.842 336 377.644 336 379.451C336 383.643 332.935 387.542 328.484 389.011C325.772 389.906 325 390.702 325 392.599V395.038L380.5 394.506L380.82 392.251C381.081 390.417 380.316 389.642 376.728 388.104C371.675 385.938 366.654 380.354 364.51 374.518C363.7 372.312 359.634 360.606 355.476 348.506C351.318 336.406 346.181 321.556 344.061 315.506C341.942 309.456 337.706 297.306 334.649 288.506C331.592 279.706 325.085 261.031 320.19 247.006L311.29 221.506L296.395 221.322C288.203 221.221 280.938 221.371 280.25 221.655Z" stroke="#F2C7B7" stroke-width="2" mask="url(#path-1-inside-1_32_70)"/>
<path d="M317.541 322.506L292.621 322.773C278.915 322.921 267.511 322.851 267.279 322.618C266.909 322.249 273.405 303.506 288.331 261.877C292.465 250.347 292.51 250.275 293.705 253.377C294.368 255.098 300.003 271.356 306.226 289.506L317.541 322.506Z" stroke="#F2C7B7" stroke-width="2" mask="url(#path-1-inside-1_32_70)"/>
<path d="M184.426 0.5C184.741 0.500742 185.185 0.621074 185.761 0.901367C186.33 1.17766 186.989 1.59014 187.725 2.13086C189.196 3.21213 190.933 4.77534 192.799 6.68652C196.531 10.5073 200.743 15.683 204.332 21.085C206.964 25.0468 209.863 30.5951 212.105 35.6533C213.226 38.1812 214.179 40.5783 214.85 42.5859C215.528 44.614 215.899 46.1855 215.899 47.0908C215.899 47.6815 215.911 48.224 216.038 48.6094C216.105 48.8155 216.223 49.0362 216.441 49.1865C216.665 49.3407 216.92 49.3703 217.157 49.3438C217.59 49.2952 218.131 49.0358 218.781 48.6611C219.453 48.2733 220.324 47.7102 221.444 46.9746C224.546 44.9368 229.853 42.7957 235.646 41.082C241.431 39.3707 247.647 38.1025 252.544 37.7852L260.899 37.2432V45.293C260.899 66.5775 253.332 85.2445 238.728 100.029L238.027 100.73C230.947 107.731 227.731 110.077 220.081 113.836C213.172 117.23 208.239 119.253 203.051 120.433C197.863 121.612 192.392 121.953 184.399 121.946C176.445 121.94 170.311 121.427 164.582 120.089C158.854 118.752 153.508 116.585 147.135 113.249C142.511 110.827 136.787 106.401 131.564 101.462C126.34 96.5224 121.661 91.111 119.102 86.7412C116.08 81.5801 113.273 74.134 111.226 66.4043C109.179 58.6753 107.902 50.7055 107.917 44.5068C107.922 42.6098 107.956 41.2142 108.137 40.1787C108.317 39.1521 108.627 38.5682 109.113 38.2051C109.619 37.827 110.406 37.617 111.711 37.5664C113.008 37.5161 114.724 37.6241 117.015 37.8018C125.613 38.468 135.468 41.2078 143.632 45.1895L144.417 45.5781C146.001 46.3766 147.513 47.1066 148.673 47.6396C149.253 47.9058 149.749 48.1252 150.124 48.2793C150.31 48.3561 150.473 48.4189 150.603 48.4639C150.708 48.5 150.859 48.5501 150.987 48.5557C151.21 48.5654 151.363 48.4401 151.414 48.3965C151.484 48.3358 151.543 48.2629 151.59 48.1982C151.688 48.0658 151.792 47.8877 151.9 47.6836C152.118 47.2704 152.386 46.6833 152.683 45.9727C153.279 44.5477 154.012 42.5859 154.739 40.4297C158.664 28.7855 165.244 18.0777 174.259 8.68066C177.211 5.60348 179.357 3.54072 180.989 2.24902C182.639 0.942519 183.676 0.498501 184.426 0.5Z" fill="#DFA081" stroke="#DFA081"/>
<path d="M183.858 8.40906C183.955 8.37169 184.074 8.35955 184.26 8.41687C184.683 8.54753 185.298 8.98648 186.298 9.91296C186.911 10.481 188.093 11.747 189.229 13.08C189.051 13.0508 188.86 13.0581 188.677 13.1327L188.541 13.202C188.359 13.3149 188.251 13.5003 188.237 13.7079C188.226 13.8802 188.282 14.0296 188.33 14.1288C188.428 14.3313 188.601 14.5408 188.779 14.7313C189.149 15.1255 189.691 15.5893 190.22 16.0116C190.753 16.4376 191.292 16.8369 191.668 17.1053C191.855 17.2388 192.007 17.343 192.099 17.4032C192.122 17.4182 192.144 17.4331 192.164 17.4452C192.169 17.4483 192.221 17.4799 192.278 17.5009C192.281 17.5019 192.366 17.5368 192.477 17.5311C192.51 17.5294 192.58 17.5195 192.659 17.4833C194.415 19.6288 196.483 22.528 198.442 25.5497C200.527 28.7643 202.483 32.0993 203.814 34.787C204.248 35.6615 204.611 36.4617 204.891 37.162C204.745 37.1475 204.587 37.1734 204.435 37.2675H204.434C204.192 37.4173 204.103 37.6604 204.075 37.8446C204.047 38.0284 204.066 38.2208 204.1 38.3915C204.168 38.7374 204.322 39.1234 204.5 39.4589C204.675 39.7884 204.902 40.1235 205.145 40.3387C205.258 40.4396 205.437 40.5712 205.664 40.5995C205.79 40.6151 205.929 40.598 206.062 40.5292C206.072 40.5237 206.081 40.5155 206.091 40.5096C206.452 41.3551 206.821 42.3452 207.161 43.3749C207.46 44.2806 207.733 45.2093 207.959 46.0868C207.788 46.0931 207.631 46.1457 207.494 46.2303V46.2313C207.216 46.4035 207.142 46.711 207.116 46.8885C207.087 47.0963 207.095 47.3335 207.121 47.5673C207.174 48.0406 207.31 48.6047 207.475 49.1219C207.638 49.6358 207.842 50.1416 208.046 50.4872C208.138 50.6437 208.271 50.8393 208.448 50.9569C208.544 51.0207 208.714 51.1008 208.923 51.0614C209.011 51.0448 209.085 51.0104 209.146 50.9686C209.349 52.3449 209.362 53.1657 209.104 53.9159C208.795 54.813 208.08 55.6728 206.587 57.2137C205.682 58.147 203.763 60.342 202.047 62.2382C201.684 62.639 201.328 63.0252 200.993 63.3866C201.005 63.3193 201.013 63.2542 201.015 63.1923C201.017 63.08 201.009 62.9514 200.969 62.828C200.927 62.7014 200.832 62.5295 200.631 62.4384C200.435 62.35 200.25 62.3879 200.141 62.4286C200.029 62.4698 199.935 62.5349 199.862 62.5927C199.583 62.8145 199.273 63.2289 199.019 63.6473C198.756 64.0777 198.508 64.5835 198.375 65.0302C198.309 65.2498 198.262 65.4895 198.272 65.7137C198.282 65.9043 198.34 66.1592 198.545 66.3427C198.514 66.3993 198.484 66.4579 198.452 66.5155C197.486 68.2625 196.191 70.4179 194.866 72.5009C193.918 73.9922 192.956 75.4408 192.095 76.6737C192.095 76.6596 192.096 76.6456 192.096 76.6317C192.089 76.2836 192.034 75.9197 191.861 75.6395V75.6385L191.779 75.5311C191.684 75.4284 191.547 75.3456 191.369 75.3329C191.168 75.3184 191.008 75.4036 190.917 75.4647C190.734 75.588 190.57 75.7916 190.436 75.9852C190.151 76.395 189.839 76.9953 189.569 77.6102C189.299 78.2274 189.058 78.8914 188.924 79.4374C188.857 79.7068 188.81 79.9738 188.808 80.202C188.807 80.3154 188.816 80.4456 188.855 80.5712C188.895 80.697 188.978 80.8618 189.154 80.9706C189.355 81.0948 189.561 81.063 189.677 81.0272C189.72 81.0138 189.761 80.9954 189.8 80.9764C188.834 83.1088 187.252 86.9636 186.075 90.0663V90.0673C185.599 91.3248 185.206 92.3119 184.877 93.0614C184.544 93.8198 184.289 94.3036 184.092 94.5751C184.075 94.5982 184.056 94.6165 184.042 94.6346C184.004 94.5599 183.961 94.4623 183.915 94.3358C178.472 79.3095 171.082 66.724 162.497 57.9061C161.182 56.5548 160.173 55.2939 159.497 54.1815C158.814 53.0585 158.5 52.1351 158.5 51.4462C158.5 51.1388 158.577 50.5443 158.714 49.7987C158.82 49.2196 158.958 48.5713 159.111 47.9354C159.128 47.9525 159.144 47.9713 159.163 47.9872C159.232 48.0428 159.325 48.0922 159.438 48.1093C159.552 48.1263 159.656 48.1062 159.738 48.0721C159.886 48.011 159.978 47.9026 160.022 47.8427C160.075 47.7726 160.118 47.695 160.151 47.6239C160.282 47.3484 160.395 46.9314 160.476 46.5155C160.557 46.0919 160.615 45.6198 160.612 45.2186C160.611 45.0201 160.595 44.8161 160.55 44.6366C160.518 44.5082 160.451 44.3119 160.293 44.163C160.613 42.9892 161.078 41.6075 161.644 40.1317C162.98 36.6441 164.856 32.6786 166.62 29.7645C169.293 25.348 172.644 20.6841 175.481 17.2186C176.319 16.1954 177.109 15.2806 177.82 14.5096C177.877 14.5291 177.93 14.5421 177.974 14.5477C178.043 14.5567 178.113 14.555 178.179 14.5507C178.23 14.6477 178.295 14.7418 178.377 14.8319V14.8329C178.648 15.1322 179.013 15.0419 179.17 14.9803C179.349 14.9098 179.524 14.7852 179.676 14.6581C179.988 14.3959 180.334 14.0109 180.634 13.6132C180.66 13.5784 180.684 13.5412 180.71 13.5057C181.204 13.221 181.676 12.9137 182.006 12.6395C182.175 12.4988 182.349 12.3332 182.454 12.1591C182.505 12.0751 182.578 11.9257 182.567 11.7411C182.554 11.5125 182.421 11.3414 182.257 11.2479C181.903 11.0463 181.508 11.0031 181.126 11.0468C181.121 11.0444 181.117 11.0412 181.112 11.0389C181.531 10.633 181.942 10.2401 182.301 9.89539C182.827 9.39052 183.274 8.95798 183.44 8.75769L183.439 8.75671C183.613 8.5483 183.749 8.45147 183.858 8.40906ZM191.093 76.8114C191.085 77.0553 191.053 77.3447 190.991 77.6688C190.944 77.9185 190.878 78.1833 190.801 78.4579C190.474 78.8865 190.182 79.2446 189.938 79.5214C190.06 79.0752 190.257 78.5342 190.485 78.0116C190.685 77.5567 190.899 77.1339 191.093 76.8114ZM208.098 47.2147C208.148 47.2813 208.209 47.3755 208.276 47.5067C208.284 47.5224 208.291 47.5392 208.299 47.5555C208.317 47.6445 208.336 47.7318 208.353 47.8182C208.449 48.3283 208.515 48.7856 208.547 49.1718C208.506 49.0591 208.466 48.941 208.427 48.8192C208.275 48.3408 208.158 47.8438 208.115 47.4569C208.105 47.3642 208.099 47.2835 208.098 47.2147ZM180.229 12.4296C180.167 12.5318 180.099 12.6382 180.025 12.746C179.855 12.8406 179.683 12.9308 179.515 13.0155C179.599 12.9245 179.693 12.8337 179.796 12.746C179.932 12.6294 180.079 12.5231 180.229 12.4296Z" fill="#F2C7B6" stroke="#F2C7B7"/>
<path d="M119.01 44.8168C121.836 45.1909 126.959 46.4168 130.373 47.5375C134.233 48.8047 139.763 51.504 144.292 54.0902C146.024 55.0795 147.601 56.0479 148.875 56.9066L148.756 56.9681C148.6 57.0644 148.484 57.2254 148.462 57.4281C148.442 57.6004 148.497 57.7459 148.542 57.8363C148.631 58.0173 148.787 58.1879 148.936 58.3295C149.25 58.6272 149.711 58.9602 150.177 59.2504C150.644 59.5407 151.151 59.8085 151.565 59.9633C151.765 60.0377 151.986 60.1027 152.186 60.1097C152.286 60.1132 152.429 60.1045 152.57 60.0345C152.694 59.9732 152.795 59.8742 152.857 59.7465C152.93 59.8031 153.002 59.8605 153.075 59.9183C152.902 59.9344 152.732 59.9828 152.572 60.0814C152.383 60.198 152.286 60.3864 152.269 60.5775C152.255 60.7404 152.3 60.8871 152.343 60.9896C152.429 61.1987 152.586 61.4195 152.756 61.6263C153.105 62.0522 153.626 62.5545 154.166 63.0131C154.707 63.4722 155.291 63.9088 155.775 64.1957C156.012 64.3361 156.255 64.4581 156.47 64.5199C156.576 64.5501 156.714 64.5773 156.859 64.5609C157.019 64.5428 157.218 64.4651 157.343 64.2631C157.355 64.2431 157.362 64.2208 157.373 64.2006C159.503 66.4793 162.023 69.672 164.396 73.0297C166.834 76.4784 169.106 80.0826 170.637 83.0228C171.215 84.1308 171.681 85.1352 172.012 85.9955C171.878 85.9849 171.737 86.0054 171.594 86.0746L171.51 86.1195C171.278 86.2632 171.175 86.4908 171.135 86.684C171.095 86.873 171.105 87.0713 171.134 87.2484C171.19 87.6054 171.337 87.9996 171.51 88.3402C171.679 88.6752 171.902 89.0145 172.142 89.2328C172.255 89.3349 172.434 89.469 172.662 89.4984C172.788 89.5147 172.928 89.498 173.061 89.4291C173.191 89.3619 173.281 89.2615 173.343 89.1625C173.344 89.1601 173.345 89.157 173.346 89.1547C173.57 89.6389 173.791 90.173 173.997 90.7289C174.036 90.834 174.072 90.9402 174.11 91.0463C173.924 90.995 173.707 90.9994 173.5 91.1273C173.33 91.2323 173.244 91.3894 173.201 91.5101C173.157 91.6322 173.14 91.761 173.134 91.8763C173.122 92.1078 173.152 92.3804 173.2 92.6586C173.298 93.2218 173.493 93.9091 173.719 94.5492C173.943 95.1869 174.208 95.809 174.455 96.2377C174.571 96.4395 174.713 96.654 174.878 96.7904C174.956 96.8553 175.112 96.9643 175.324 96.9633C175.518 96.9623 175.663 96.8731 175.76 96.7689L175.843 96.6625C175.935 96.5126 175.996 96.3386 176.037 96.1537C176.199 96.5682 176.361 96.9976 176.517 97.4349C177.002 98.793 177.437 100.212 177.748 101.474C177.633 101.547 177.553 101.645 177.5 101.726H177.499C177.406 101.868 177.356 102.035 177.325 102.182C177.293 102.336 177.273 102.51 177.263 102.692C177.244 103.057 177.259 103.498 177.297 103.971C177.372 104.92 177.542 106.048 177.749 107.066C177.953 108.073 178.201 109.013 178.438 109.566C178.498 109.705 178.567 109.841 178.645 109.953C178.685 110.009 178.736 110.072 178.801 110.128C178.863 110.183 178.965 110.253 179.102 110.28C179.258 110.31 179.386 110.275 179.488 110.219C179.513 111.701 179.797 113.608 180.16 114.553C180.224 114.721 180.264 114.849 180.283 114.948C180.295 115.011 180.296 115.05 180.296 115.071C180.273 115.083 180.222 115.108 180.123 115.128C179.861 115.183 179.422 115.195 178.717 115.15C178.022 115.105 177.114 115.008 175.936 114.868C172.316 114.434 168.121 113.562 164.835 112.657C163.689 112.341 162.661 112.021 161.809 111.719C161.868 111.659 161.924 111.581 161.956 111.478C162.014 111.287 161.961 111.118 161.901 111.011C161.801 110.832 161.624 110.716 161.516 110.653C161.262 110.503 160.897 110.365 160.546 110.263C160.191 110.16 159.799 110.079 159.479 110.061C159.327 110.052 159.143 110.055 158.978 110.106C158.894 110.132 158.778 110.181 158.678 110.282C158.612 110.349 158.563 110.431 158.533 110.521C157.896 110.302 157.179 110.019 156.4 109.681C153.86 108.578 150.727 106.923 147.717 105.136C144.705 103.349 141.836 101.44 139.818 99.8344C139.596 99.6579 139.387 99.4848 139.188 99.3177C139.49 99.1252 139.517 98.8028 139.486 98.6049C139.456 98.4135 139.367 98.2265 139.276 98.0717C139.088 97.7504 138.79 97.393 138.477 97.0814C138.165 96.7701 137.805 96.4703 137.479 96.2845C137.322 96.195 137.13 96.1075 136.931 96.0834C136.715 96.0572 136.405 96.1061 136.221 96.4027V96.4037C136.148 96.5226 136.108 96.6464 136.091 96.7699C135.322 96.0983 134.492 95.2868 133.695 94.432C133.279 93.9854 132.873 93.5297 132.493 93.0795C132.724 93.0989 132.961 93.0605 133.18 92.9252C133.564 92.6881 133.513 92.2587 133.47 92.0785C133.419 91.8575 133.302 91.6185 133.17 91.3929C132.898 90.9309 132.476 90.3859 132.029 89.891C131.583 89.3971 131.084 88.9236 130.651 88.6185C130.441 88.4706 130.206 88.3339 129.977 88.2738C129.861 88.2432 129.709 88.2221 129.548 88.2611C129.414 88.2935 129.294 88.3627 129.201 88.4633L129.117 88.5746C129.111 88.5846 129.105 88.5948 129.099 88.6049C127.924 86.9937 126.615 84.9333 125.3 82.6195C121.89 76.624 118.476 69.0193 117.183 63.2953C116.318 59.4633 115.331 53.4601 114.991 49.9701L114.428 44.2084L119.01 44.8168ZM178.711 105.998C178.873 106.649 178.982 107.377 179.005 108.057C178.912 107.701 178.817 107.297 178.729 106.867C178.663 106.539 178.602 106.2 178.546 105.861C178.584 105.854 178.624 105.845 178.665 105.829C178.68 105.885 178.696 105.941 178.711 105.998ZM137.258 97.3402C137.419 97.4629 137.598 97.6165 137.771 97.7894C137.951 97.9691 138.112 98.1548 138.239 98.3226C138.143 98.2774 138.039 98.2217 137.927 98.1566C137.789 98.012 137.664 97.8749 137.555 97.7445C137.429 97.5924 137.332 97.4574 137.258 97.3402ZM174.165 92.348C174.334 92.5713 174.53 92.8843 174.745 93.2816C174.768 93.3251 174.79 93.3703 174.814 93.4154C174.873 93.6665 174.924 93.9103 174.967 94.1439C175.045 94.5809 175.09 94.972 175.1 95.3002C174.956 94.9889 174.802 94.614 174.662 94.2162C174.447 93.6075 174.27 92.9771 174.184 92.4867C174.176 92.4383 174.171 92.3918 174.165 92.348ZM130.076 89.4369C130.424 89.6822 130.866 90.0958 131.287 90.5619C131.707 91.0271 132.082 91.5156 132.307 91.8988C132.334 91.9444 132.354 91.9886 132.375 92.0277C132.253 91.9773 132.1 91.8916 131.916 91.7572C131.52 91.4687 131.047 91.0095 130.51 90.3939C130.32 90.0744 130.175 89.7937 130.084 89.558C130.063 89.5043 130.048 89.4538 130.034 89.4086C130.047 89.4176 130.062 89.4269 130.076 89.4369ZM172.134 87.1508C172.241 87.2579 172.366 87.4119 172.505 87.6156C172.535 87.774 172.557 87.9177 172.566 88.0472C172.57 88.0939 172.567 88.1375 172.568 88.1781C172.514 88.0929 172.456 87.9962 172.402 87.889C172.272 87.6324 172.176 87.3652 172.134 87.1508ZM153.518 60.9799C153.746 61.0609 154.035 61.2137 154.384 61.4545C154.859 61.7834 155.408 62.2457 156.014 62.8217C156.165 63.0294 156.279 63.2154 156.358 63.3744C156.335 63.3612 156.31 63.35 156.285 63.3353C155.866 63.0874 155.329 62.6885 154.813 62.2504C154.296 61.8116 153.824 61.3538 153.528 60.9926C153.525 60.9884 153.522 60.984 153.518 60.9799ZM150.154 58.0306C150.327 58.1056 150.518 58.1996 150.722 58.3109C150.805 58.3556 150.888 58.403 150.973 58.4525C151.096 58.5554 151.208 58.6542 151.309 58.7474C151.115 58.6452 150.909 58.5276 150.705 58.4008C150.51 58.2794 150.323 58.1529 150.154 58.0306Z" fill="#F2C7B6" stroke="#F2C7B7"/>
<path d="M251.26 44.5612C251.927 44.548 252.367 44.555 252.679 44.6237C252.956 44.6846 253.081 44.7815 253.174 44.9411C253.293 45.144 253.384 45.4964 253.434 46.1413C253.483 46.7744 253.488 47.6176 253.485 48.7546C253.483 49.2054 253.477 49.6095 253.467 49.9694C253.409 49.9054 253.344 49.8467 253.268 49.8005C253.068 49.6793 252.821 49.6535 252.594 49.7682C252.401 49.8662 252.286 50.0343 252.221 50.1686C252.088 50.4438 252.046 50.8044 252.084 51.1579C252.124 51.522 252.252 51.9257 252.509 52.2927C252.618 52.4478 252.73 52.5891 252.846 52.7009C252.923 52.7747 253.024 52.8571 253.149 52.9157C253.16 53.4144 253.146 53.9629 253.106 54.5436C253.013 55.9058 252.79 57.3951 252.5 58.737C252.471 58.717 252.44 58.6986 252.407 58.6823C252.071 58.5181 251.759 58.6611 251.583 58.7888C251.401 58.9202 251.244 59.1121 251.113 59.3073C250.977 59.5093 250.849 59.7469 250.735 59.9987C250.507 60.5001 250.317 61.0944 250.232 61.6442C250.189 61.9192 250.171 62.1978 250.193 62.4557C250.215 62.7081 250.279 62.9806 250.436 63.2087C250.551 63.3746 250.719 63.5433 250.96 63.61C251.12 63.6541 251.271 63.6426 251.404 63.6013C251.273 64.1004 251.127 64.631 250.959 65.1852C250.147 67.8778 248.94 71.1133 247.634 74.197C246.328 77.2822 244.928 80.1992 243.731 82.2575C243.5 82.6542 243.276 83.0133 243.066 83.3356C243.03 83.0521 242.952 82.7872 242.817 82.5681C242.757 82.4706 242.664 82.3649 242.526 82.2966C242.38 82.2247 242.228 82.2161 242.094 82.2458C241.86 82.2977 241.691 82.4612 241.592 82.5739C241.374 82.8231 241.178 83.2008 241.032 83.5739C240.883 83.9535 240.764 84.3863 240.731 84.7712C240.715 84.9622 240.717 85.1686 240.765 85.36C240.813 85.5511 240.921 85.781 241.155 85.9255C241.241 85.9788 241.329 86.0129 241.416 86.0319C241.083 86.6271 240.63 87.3442 240.157 87.9479C240.093 87.8972 240.021 87.8518 239.936 87.819C239.586 87.6833 239.214 87.7904 238.921 87.9665C238.908 87.942 238.893 87.9064 238.878 87.8571C238.852 87.7646 238.833 87.6381 238.833 87.4782C238.833 87.3985 238.829 87.3201 238.819 87.2477C238.81 87.1866 238.789 87.0813 238.729 86.9792C238.697 86.9246 238.638 86.8457 238.539 86.7858C238.428 86.7198 238.3 86.696 238.176 86.7175C237.971 86.7532 237.856 86.8951 237.825 86.9352C237.738 87.0457 237.68 87.1873 237.643 87.2975C237.601 87.4225 237.565 87.5688 237.538 87.7253C237.484 88.0351 237.46 88.421 237.523 88.7975C237.577 89.1237 237.704 89.4849 237.974 89.7682L238.098 89.8845C238.222 89.9875 238.352 90.0537 238.483 90.0925C238.242 90.3725 237.965 90.6822 237.656 91.0163C236.448 92.3198 234.778 93.9717 232.943 95.6931C229.265 99.1419 224.964 102.83 222.417 104.539C221.129 105.402 219.045 106.479 217.172 107.302C216.745 107.49 216.33 107.663 215.942 107.817C215.922 107.758 215.897 107.697 215.86 107.637V107.636L215.797 107.55C215.641 107.369 215.425 107.315 215.285 107.299C215.114 107.281 214.935 107.302 214.776 107.336C214.453 107.403 214.09 107.545 213.776 107.708C213.475 107.864 213.151 108.074 212.958 108.31C212.869 108.418 212.723 108.633 212.76 108.91C212.786 109.101 212.886 109.235 213 109.328C212.651 109.493 212.264 109.667 211.842 109.843C209.537 110.809 206.301 111.878 202.949 112.819C199.597 113.76 196.148 114.568 193.418 115.014C192.052 115.238 190.882 115.368 190 115.383C189.559 115.391 189.207 115.369 188.947 115.322C188.733 115.283 188.628 115.235 188.583 115.208C188.579 115.194 188.571 115.173 188.564 115.142C188.542 115.044 188.525 114.898 188.517 114.698C188.501 114.299 188.525 113.748 188.589 113.066C188.717 111.706 188.996 109.881 189.383 107.83C190.157 103.727 191.355 98.7597 192.611 94.863C193.361 92.5345 194.233 90.094 195.002 88.3112C195.027 88.4882 195.062 88.657 195.114 88.8161V88.8171C195.149 88.9251 195.196 89.0357 195.262 89.1335C195.328 89.2302 195.434 89.344 195.594 89.4059C195.969 89.55 196.253 89.3039 196.36 89.1872C196.488 89.0474 196.589 88.8625 196.669 88.6833C196.753 88.4961 196.828 88.2797 196.892 88.0524C197.02 87.5999 197.112 87.0702 197.126 86.5817C197.134 86.3372 197.122 86.0909 197.081 85.864C197.04 85.6419 196.966 85.4062 196.824 85.2087V85.2077L196.744 85.112C196.699 85.0663 196.645 85.027 196.584 84.9919C196.795 84.4101 197.055 83.7821 197.365 83.1159C198.522 80.6235 200.322 77.6405 202.5 74.5495C206.858 68.3626 212.684 61.8124 217.8 57.9626C222.449 54.465 228.669 51.1531 234.816 48.694C240.972 46.2313 246.998 44.6464 251.26 44.5612ZM239.215 88.9284C239.144 88.9816 239.078 89.0273 239.014 89.0612C238.844 89.1524 238.777 89.1407 238.751 89.1266L238.737 89.1149C238.689 89.075 238.646 89.0191 238.609 88.947C238.665 88.9655 238.724 88.9789 238.786 88.986C238.937 89.0036 239.081 88.9772 239.215 88.9284ZM196.127 86.5515C196.117 86.8928 196.055 87.2732 195.969 87.6198C195.982 87.3031 196.033 86.9376 196.126 86.5222C196.126 86.5317 196.128 86.5418 196.127 86.5515ZM242.09 83.6491C242.096 83.8013 242.089 83.9792 242.063 84.1804C242.037 84.38 241.994 84.5891 241.936 84.8005C241.854 84.8784 241.783 84.9369 241.723 84.9782C241.723 84.9429 241.723 84.9017 241.727 84.8552C241.749 84.5949 241.837 84.259 241.962 83.9382C242.003 83.8335 242.048 83.737 242.09 83.6491ZM251.972 59.8259C252.004 60.0639 252.001 60.3916 251.959 60.8093C251.797 61.3221 251.632 61.7602 251.467 62.0934C251.367 62.2958 251.28 62.4316 251.213 62.5202C251.204 62.4806 251.194 62.4312 251.189 62.3698C251.176 62.2152 251.186 62.0208 251.22 61.7975C251.29 61.3504 251.449 60.8431 251.645 60.4118C251.743 60.1973 251.846 60.0104 251.944 59.864C251.953 59.8503 251.963 59.8384 251.972 59.8259Z" fill="#F3C8B7" stroke="#F2C7B7"/>
<path d="M56.3535 88.3599C59.0044 85.709 63.8663 85.9012 66.6445 88.857C68.2001 90.5131 69.8618 91.3917 71.3496 90.9195C71.734 90.7976 72.3993 90.85 73.2891 91.1255C74.1538 91.3934 75.145 91.8448 76.126 92.4078C77.1056 92.97 78.062 93.6362 78.8594 94.3257C79.6627 95.0205 80.278 95.7154 80.6074 96.3306C81.3612 97.7402 83.021 98.5064 84.9189 98.5064C85.7141 98.5064 86.6315 98.8073 87.6387 99.4234C88.6429 100.038 89.709 100.948 90.791 102.121C92.9548 104.465 95.1452 107.815 97.0068 111.804C98.5247 115.056 100.445 119.183 101.273 120.973C102.405 123.419 105.15 126.491 108.709 129.565C112.284 132.652 116.733 135.786 121.338 138.347C138.34 147.803 149.218 155.996 155.937 165.602C162.643 175.192 165.242 186.248 165.557 201.516C165.691 208.002 165.748 211.245 165.539 212.97C165.435 213.829 165.273 214.216 165.097 214.432C164.923 214.645 164.684 214.76 164.193 214.949C163.428 215.243 162.881 215.277 162.479 215.137C162.092 215.003 161.73 214.668 161.421 213.964C161.109 213.255 160.875 212.225 160.722 210.809C160.569 209.399 160.5 207.637 160.5 205.48C160.5 200.06 159.716 193.506 158.497 187.507C157.28 181.519 155.617 176.028 153.836 172.755C150 165.708 142.116 157.559 134.049 152.276C132.212 151.073 130.632 149.894 129.566 148.969C129.031 148.504 128.641 148.118 128.415 147.835C128.356 147.76 128.313 147.7 128.284 147.654C128.338 147.582 128.388 147.508 128.422 147.431C128.449 147.369 128.503 147.23 128.472 147.062C128.454 146.967 128.409 146.868 128.329 146.785C128.252 146.704 128.163 146.661 128.089 146.638C127.955 146.598 127.833 146.615 127.769 146.627C127.693 146.641 127.618 146.664 127.551 146.69C127.42 146.74 127.27 146.815 127.106 146.908C127.094 146.909 127.045 146.915 126.938 146.904C126.781 146.887 126.561 146.84 126.278 146.755C125.715 146.587 124.964 146.29 124.066 145.884C122.275 145.075 119.954 143.859 117.483 142.45C112.535 139.628 107.045 136.069 104.064 133.522C100.532 130.503 98.3234 127.205 94.0225 118.394C90.9654 112.13 88.6018 107.872 87.2754 106.111C86.9549 105.686 86.6448 105.336 86.3623 105.169C86.2286 105.091 85.9562 104.968 85.666 105.107C85.3823 105.243 85.3016 105.527 85.2744 105.679C85.216 106.008 85.2747 106.488 85.3916 107.054C85.5137 107.646 85.7172 108.409 86.0049 109.347C90.5307 124.104 94.5118 133.145 100.615 142.489C102.529 145.42 103.937 147.308 105.843 149.033C107.742 150.751 110.117 152.289 113.938 154.55C116.345 155.975 118.722 157.48 120.611 158.755C121.556 159.393 122.376 159.972 123.016 160.453C123.665 160.942 124.099 161.309 124.297 161.527L124.298 161.528C124.698 161.97 124.974 162.289 125.15 162.549C125.326 162.808 125.364 162.951 125.364 163.042C125.365 163.127 125.333 163.253 125.167 163.482C124.997 163.716 124.729 163.999 124.332 164.395C123.941 164.786 123.673 165.006 123.396 165.116C123.142 165.217 122.823 165.246 122.296 165.116C121.756 164.982 121.038 164.692 120.011 164.194C119.5 163.946 118.919 163.65 118.254 163.302L115.988 162.099C103.541 155.424 91.7552 147.817 86.4814 143.076C80.3884 137.598 75.6432 128.534 71.5527 114.368C69.476 107.174 67.8681 102.166 66.5469 98.9088C65.8872 97.2823 65.2896 96.0683 64.7285 95.231C64.2175 94.4686 63.6744 93.9234 63.0596 93.7525L62.9355 93.7232C62.658 93.6697 62.35 93.6646 62.0635 93.7994C61.7651 93.9397 61.5699 94.1933 61.4512 94.4947C61.2314 95.0528 61.2224 95.9113 61.3486 97.0767C61.606 99.4524 62.4846 103.519 64.0654 110.123C68.9371 130.47 71.8582 141.453 77.5488 150.003C83.2447 158.56 91.6943 164.647 107.462 175.307C116.026 181.097 121.529 185.608 125.188 190.351C128.834 195.077 130.672 200.063 131.84 206.851C132.296 209.501 132.493 211.068 132.432 212.127C132.402 212.644 132.31 213.018 132.169 213.326C132.028 213.633 131.823 213.904 131.528 214.199C131.002 214.725 130.502 214.996 130.061 215.086C129.629 215.173 129.217 215.093 128.831 214.85C128.032 214.347 127.298 213.1 126.99 211.084C125.929 204.14 124.199 198.973 120.773 194.244C117.357 189.527 112.28 185.283 104.6 180.131C95.7578 174.2 84.8195 166.056 80.5186 162.206C74.9396 157.212 68.4122 146.358 65.4375 137.074C63.8653 132.165 61.1281 121.642 58.7822 111.932C57.61 107.08 56.5376 102.438 55.7578 98.8091C55.3679 96.9946 55.0512 95.4363 54.833 94.2339C54.6115 93.013 54.5 92.2039 54.5 91.856C54.5 91.4666 54.6824 90.8646 55.0312 90.1929C55.3732 89.5346 55.8442 88.8693 56.3535 88.3599Z" fill="#AABFB8" stroke="#AABDB7"/>
<path d="M307.123 86.506C309.53 86.506 311.174 87.2462 312.129 88.548C313.095 89.8656 313.441 91.874 312.985 94.59C312.012 100.385 308.223 117.538 305.534 128.407L305.012 130.492C304.326 133.201 303.701 135.701 303.248 137.547C303.021 138.47 302.838 139.231 302.711 139.773C302.667 139.958 302.629 140.119 302.599 140.252C302.461 140.188 302.293 140.1 302.107 139.985H302.108C301.917 139.867 301.732 139.771 301.566 139.717C301.484 139.69 301.379 139.665 301.264 139.667C301.147 139.67 300.977 139.704 300.838 139.843C300.698 139.982 300.664 140.152 300.661 140.27C300.658 140.384 300.683 140.489 300.71 140.571C300.763 140.738 300.86 140.923 300.978 141.114C301.048 141.227 301.105 141.484 301.032 141.969C300.962 142.435 300.785 143.028 300.503 143.733C299.939 145.138 298.987 146.911 297.76 148.855C295.459 152.497 292.23 156.685 288.906 160.107L288.24 160.78C284.378 164.62 275.477 171.627 268.468 176.337C257.912 183.431 251.716 187.985 247.836 192.373C243.925 196.797 242.379 201.037 241.041 207.432C240.634 209.373 240.261 210.921 239.892 212.125C239.521 213.337 239.164 214.167 238.804 214.696C238.45 215.218 238.136 215.39 237.847 215.417C237.528 215.447 237.099 215.317 236.494 214.925C235.853 214.51 235.391 213.516 235.226 211.924C235.065 210.365 235.205 208.367 235.621 206.147C236.452 201.707 238.364 196.479 241.012 192.273C244.459 186.799 250.865 181.256 264.233 172.282C283.823 159.133 291.853 150.787 296.393 138.652C298.866 132.042 302.847 117.086 304.926 106.604C305.799 102.203 306.784 97.3695 307.116 95.8634C307.296 95.044 307.352 94.2915 307.269 93.7198C307.229 93.4377 307.149 93.1582 306.999 92.9357C306.858 92.7269 306.642 92.5546 306.358 92.5148L306.232 92.506C305.473 92.506 304.793 93.0303 304.177 93.8097C303.547 94.6087 302.892 95.7909 302.199 97.3527C300.81 100.482 299.218 105.246 297.339 111.816C292.731 127.921 289.647 134.393 283.474 141.104C281.807 142.917 278.719 145.392 274.937 148.08C271.165 150.761 266.733 153.633 262.399 156.238C258.064 158.845 253.837 161.18 250.473 162.79C248.79 163.596 247.335 164.214 246.197 164.595C245.627 164.785 245.149 164.913 244.769 164.976C244.374 165.041 244.143 165.026 244.033 164.991C243.015 164.668 242.578 164.278 242.448 163.924C242.325 163.588 242.403 163.068 243.003 162.274C243.591 161.495 244.602 160.563 246.07 159.477C247.532 158.394 249.423 157.175 251.752 155.816C257.291 152.581 261.192 149.752 264.414 146.248C267.635 142.745 270.154 138.592 272.968 132.743C275.394 127.699 278.111 121.054 280.074 115.669C281.055 112.977 281.852 110.59 282.331 108.87C282.569 108.015 282.735 107.304 282.802 106.798C282.834 106.553 282.849 106.312 282.818 106.116C282.803 106.021 282.77 105.884 282.68 105.76C282.586 105.63 282.441 105.533 282.264 105.511L282.187 105.506C281.875 105.506 281.6 105.691 281.403 105.856C281.183 106.039 280.945 106.295 280.698 106.601C280.201 107.215 279.614 108.094 278.969 109.174C277.675 111.337 276.118 114.359 274.549 117.813C271.515 124.492 268.964 128.801 264.941 132.685C260.905 136.582 255.363 140.075 246.295 145.068V145.068C231.544 153.19 222.061 160.265 216.11 168.976C210.152 177.698 207.775 187.999 207.097 202.483C206.982 204.958 206.867 207.392 206.775 209.32L206.589 213.122C206.544 213.955 205.97 214.608 205.17 214.905C204.369 215.203 203.412 215.113 202.692 214.516H202.691C202.648 214.48 202.574 214.39 202.484 214.204C202.397 214.024 202.309 213.782 202.225 213.478C202.057 212.868 201.915 212.053 201.802 211.068C201.577 209.099 201.474 206.507 201.495 203.648C201.536 197.926 202.071 191.19 203.071 186.315C204.963 177.092 208.411 169.385 213.921 162.544C219.434 155.699 227.03 149.699 237.246 143.916C244.56 139.776 250.174 136.465 254.242 133.885C258.292 131.316 260.857 129.443 262.028 128.179C262.359 127.822 262.821 127.166 263.365 126.319C263.915 125.463 264.566 124.382 265.275 123.151C266.693 120.69 268.349 117.619 269.902 114.531L269.901 114.53C272.809 108.751 275.327 104.646 277.569 102.045C279.827 99.4261 281.703 98.4522 283.332 98.6417C284.193 98.742 285.217 98.3449 286.308 97.6505C287.42 96.9429 288.688 95.8697 290.063 94.4747C291.536 92.9809 292.721 91.9718 293.718 91.3654C294.587 90.8361 295.277 90.6348 295.866 90.6544L296.112 90.6759C296.895 90.788 297.808 90.6061 298.684 90.2462C299.569 89.8831 300.461 89.3215 301.213 88.6222C302.741 87.2009 304.639 86.506 307.123 86.506Z" fill="#AABDB7" stroke="#AABDB7"/>
<mask id="path-8-inside-2_32_70" fill="white">
<path d="M233.405 94.256L231.5 96.506L233.75 94.601C235.864 92.811 236.455 92.006 235.655 92.006C235.465 92.006 234.453 93.018 233.405 94.256Z"/>
</mask>
<path d="M233.405 94.256L231.5 96.506L233.75 94.601C235.864 92.811 236.455 92.006 235.655 92.006C235.465 92.006 234.453 93.018 233.405 94.256Z" fill="white"/>
<path d="M233.405 94.256L234.168 94.9022L234.168 94.9021L233.405 94.256ZM231.5 96.506L230.737 95.8598L232.146 97.2692L231.5 96.506ZM233.75 94.601L234.396 95.3642L234.396 95.3642L233.75 94.601ZM233.405 94.256L232.642 93.6098L230.737 95.8598L231.5 96.506L232.263 97.1522L234.168 94.9022L233.405 94.256ZM231.5 96.506L232.146 97.2692L234.396 95.3642L233.75 94.601L233.104 93.8378L230.854 95.7428L231.5 96.506ZM233.75 94.601L234.396 95.3642C235.445 94.4762 236.21 93.7573 236.601 93.224C236.704 93.0843 236.809 92.92 236.884 92.7393C236.953 92.5737 237.046 92.2778 236.966 91.9331C236.871 91.5238 236.587 91.2621 236.302 91.1333C236.059 91.0231 235.818 91.006 235.655 91.006V92.006V93.006C235.692 93.006 235.607 93.014 235.477 92.9549C235.305 92.8771 235.089 92.6922 235.018 92.3863C234.962 92.1451 235.034 91.9792 235.038 91.9708C235.048 91.9474 235.043 91.9677 234.989 92.0405C234.757 92.3571 234.169 92.9358 233.104 93.8378L233.75 94.601ZM235.655 92.006V91.006C235.446 91.006 235.286 91.0689 235.218 91.0977C235.135 91.1332 235.065 91.1737 235.015 91.2051C234.914 91.2682 234.817 91.3434 234.733 91.4132C234.56 91.556 234.358 91.746 234.145 91.9596C233.713 92.3911 233.179 92.9748 232.642 93.6099L233.405 94.256L234.168 94.9021C234.679 94.2991 235.175 93.7579 235.559 93.3738C235.753 93.1798 235.905 93.0393 236.008 92.9537C236.062 92.9093 236.083 92.8957 236.079 92.8987C236.077 92.9 236.049 92.9175 236.002 92.9376C235.971 92.951 235.84 93.006 235.655 93.006V92.006Z" fill="#F2C7B7" mask="url(#path-8-inside-2_32_70)"/>
<path d="M73.54 97.8568C74.066 98.5375 74.8561 99.9044 75.8936 101.98C77.1844 104.563 79.7082 110.949 81.4951 116.168C83.177 121.078 85.7958 127.729 87.5244 131.505L87.8574 132.221C88.9118 134.441 89.7005 136.106 90.2363 137.295C90.3495 137.546 90.4492 137.776 90.5391 137.984C90.2077 137.624 89.8129 137.185 89.3535 136.672C84.2769 131.002 80.692 122.905 75.5508 105.258C74.9822 103.307 74.466 101.461 74.0918 100.061C73.9046 99.3603 73.7532 98.773 73.6494 98.3411C73.6019 98.1435 73.5659 97.9811 73.54 97.8568Z" fill="white" stroke="#AABDB7"/>
<path d="M293.981 98.9708C293.949 99.1985 293.907 99.4722 293.848 99.7843C293.666 100.736 293.368 102.011 292.997 103.376C287.935 122.028 284.384 130.367 279.063 136.355L278.096 137.443L279.433 134.708C280.962 131.58 283.989 123.929 286.38 117.191L286.85 115.857C288.861 110.086 290.657 105.497 292.061 102.469C292.764 100.95 293.359 99.8482 293.821 99.1886C293.878 99.1071 293.932 99.0343 293.981 98.9708Z" fill="white" stroke="#AABDB7"/>
<path d="M191.503 100.864C191.595 101.016 191.695 101.209 191.797 101.447L191.915 101.738C191.925 101.763 191.932 101.789 191.94 101.814C191.857 101.726 191.779 101.628 191.712 101.523C191.562 101.288 191.5 101.077 191.5 100.947C191.5 100.918 191.502 100.89 191.503 100.864Z" fill="white" stroke="#F2C7B7"/>
<mask id="path-13-inside-3_32_70" fill="white">
<path d="M152.218 327.972L152.218 327.997C152.214 327.206 152.21 326.404 152.206 325.591C152.21 326.396 152.214 327.189 152.218 327.972Z"/>
</mask>
<path d="M152.218 327.972L152.218 327.997C152.214 327.206 152.21 326.404 152.206 325.591C152.21 326.396 152.214 327.189 152.218 327.972Z" fill="white"/>
<path d="M152.218 327.997L151.218 328.002L153.218 327.993L152.218 327.997ZM152.218 327.972L153.218 327.968L153.218 327.967L152.218 327.972ZM152.218 327.997L153.218 327.993L153.218 327.968L152.218 327.972L151.218 327.976L151.218 328.001L152.218 327.997ZM152.206 325.591L151.206 325.596C151.21 326.409 151.214 327.211 151.218 328.002L152.218 327.997L153.218 327.992C153.214 327.201 153.21 326.399 153.206 325.586L152.206 325.591ZM152.218 327.972L153.218 327.967C153.214 327.184 153.21 326.391 153.206 325.586L152.206 325.591L151.206 325.596C151.21 326.401 151.214 327.194 151.218 327.977L152.218 327.972Z" fill="#F2C7B7" mask="url(#path-13-inside-3_32_70)"/>
<path d="M171.5 233.847L171.373 233.705L168.5 230.488C166.519 228.272 164.081 227.068 161.663 226.957C159.39 226.853 157.177 227.718 155.436 229.539L155.094 229.916C154.188 230.969 153.522 232.452 153.02 235.177C152.518 237.898 152.169 241.911 151.938 248.068C151.474 260.39 151.472 281.396 151.667 318.054C151.817 346.232 151.836 362.52 152.321 372.128C152.564 376.928 152.923 380.1 153.485 382.267C154.052 384.451 154.84 385.667 155.964 386.496C156.506 386.897 157.11 387.193 157.758 387.469C158.082 387.607 158.424 387.743 158.778 387.883C159.134 388.024 159.505 388.17 159.896 388.334C161.487 389.002 162.361 389.5 162.854 390.055C163.314 390.571 163.486 391.189 163.49 392.258L163.498 394.506H143.107C134.277 394.506 129.051 394.448 125.972 394.233C124.427 394.125 123.46 393.979 122.861 393.797C122.264 393.615 122.145 393.431 122.104 393.326C121.683 392.226 121.756 391.4 122.243 390.705C122.76 389.967 123.803 389.288 125.533 388.662C127.301 388.023 129.731 386.454 131.169 385.045L131.442 384.766L133.864 382.189L133.999 382.045L134 381.849L134.273 322.238C134.349 305.845 134.37 290.991 134.343 280.265C134.329 274.902 134.303 270.57 134.267 267.593C134.248 266.105 134.227 264.953 134.203 264.179C134.191 263.793 134.178 263.496 134.164 263.296C134.157 263.199 134.15 263.111 134.14 263.044C134.136 263.02 134.126 262.958 134.102 262.895C134.097 262.883 134.055 262.761 133.934 262.668C133.854 262.607 133.722 262.547 133.558 262.569C133.407 262.591 133.31 262.671 133.264 262.719V262.72C133.208 262.778 133.167 262.85 133.157 262.867C133.136 262.904 133.111 262.95 133.084 263.001C133.03 263.104 132.958 263.246 132.871 263.422C132.697 263.776 132.455 264.283 132.151 264.927C131.543 266.216 130.685 268.064 129.627 270.361C127.51 274.957 124.59 281.354 121.263 288.68C114.609 303.331 106.326 321.698 99.5859 336.802C91.5854 354.73 87.2333 364.517 84.6426 369.86C83.3443 372.538 82.5029 374.069 81.8789 374.944C81.2634 375.808 80.9217 375.946 80.6396 375.989C80.434 376.021 80.2387 376.006 79.8867 376.006C79.7131 376.006 79.5419 375.969 79.3184 375.81C79.0758 375.637 78.7661 375.316 78.3545 374.724C77.5308 373.539 76.3868 371.4 74.5977 367.594C71.0257 359.996 64.9404 345.881 53.7852 319.81C40.491 288.739 28.4938 260.832 27.1289 257.801L24.6523 252.301L23.6963 252.505L23.6045 314.505C23.574 334.873 23.6411 350.703 23.8027 361.753C23.8836 367.278 23.9874 371.612 24.1152 374.722C24.1791 376.276 24.2491 377.529 24.3252 378.474C24.3999 379.402 24.4834 380.076 24.585 380.442C25.7736 384.723 29.9112 388.044 35.2314 389.176C36.8235 389.515 37.7536 390.145 38.1211 390.815C38.4605 391.433 38.3986 392.243 37.6045 393.199C37.4441 393.393 37.1435 393.599 36.4814 393.782C35.8184 393.966 34.8474 394.111 33.4092 394.22C30.5356 394.438 25.9045 394.506 18.3779 394.506H0.5V392.117C0.5 390.85 0.631198 390.309 0.963867 389.97C1.13532 389.795 1.39584 389.637 1.82324 389.488C2.25254 389.339 2.81546 389.209 3.56348 389.068C4.59522 388.875 5.90227 388.32 7.17188 387.606C8.44816 386.888 9.72886 385.985 10.7051 385.065C12.3163 383.545 13.2626 382.539 13.8506 380.864C14.4215 379.238 14.6487 376.993 14.9717 373.031C15.3539 368.336 15.5102 335.686 15.3203 300.503C15.1833 274.994 15.0288 258.856 14.7754 248.833C14.6487 243.823 14.4974 240.332 14.3096 237.96C14.2157 236.775 14.1118 235.86 13.9961 235.17C13.8967 234.578 13.7839 234.117 13.6426 233.787L13.5801 233.654C13.1652 232.843 12.4413 231.998 11.5684 231.196C10.6898 230.39 9.63565 229.603 8.53125 228.914C7.42688 228.225 6.26217 227.628 5.16211 227.2C4.06993 226.776 3.00712 226.506 2.11426 226.506C1.30869 226.506 1.00464 226.354 0.834961 226.113C0.734924 225.971 0.646945 225.751 0.586914 225.398C0.527073 225.045 0.5 224.592 0.5 224.006V221.506H19.4766C29.0559 221.506 33.8953 221.517 36.5283 221.801C37.8434 221.943 38.5384 222.147 38.9834 222.408C39.4125 222.66 39.6546 222.988 40.0166 223.541C40.1955 223.814 40.6989 224.827 41.4746 226.485C42.2403 228.123 43.2523 230.346 44.4395 232.995C46.8136 238.294 49.8858 245.294 53.082 252.715C59.476 267.559 68.7826 289.154 73.7646 300.704C78.7467 312.254 84.1633 324.854 85.8018 328.702C86.6221 330.629 87.4052 332.423 88.0049 333.76C88.3045 334.428 88.5591 334.985 88.751 335.388C88.8466 335.589 88.9287 335.755 88.9932 335.879C89.0252 335.941 89.0554 335.996 89.082 336.042C89.1015 336.076 89.1404 336.142 89.1895 336.197L89.1904 336.198C89.29 336.309 89.4308 336.378 89.5869 336.383C89.723 336.387 89.8307 336.342 89.8936 336.308C90.0148 336.242 90.1109 336.143 90.1768 336.068C90.3201 335.904 90.48 335.663 90.6445 335.384C90.979 334.816 91.3865 333.997 91.79 333.062C92.5854 331.216 100.072 314.183 108.428 295.207C116.783 276.232 127.237 252.381 131.659 242.205C133.869 237.12 135.991 232.357 137.628 228.781C138.447 226.993 139.144 225.503 139.67 224.419C139.933 223.877 140.151 223.439 140.32 223.117C140.405 222.956 140.475 222.827 140.531 222.731C140.559 222.682 140.583 222.643 140.602 222.614C140.611 222.6 140.618 222.589 140.624 222.581C140.627 222.577 140.629 222.574 140.631 222.571C140.632 222.57 140.633 222.569 140.633 222.568C140.616 222.59 140.621 222.572 140.701 222.533C140.776 222.497 140.891 222.454 141.057 222.409C141.388 222.319 141.871 222.232 142.54 222.152C143.876 221.993 145.888 221.867 148.761 221.771C154.502 221.578 163.63 221.506 177.555 221.506C195.253 221.506 204.316 221.519 209.035 221.774C211.411 221.902 212.617 222.089 213.262 222.335C213.568 222.452 213.713 222.569 213.798 222.672C213.888 222.781 213.947 222.918 214.021 223.149C214.437 224.462 214.342 225.252 213.984 225.714C213.619 226.185 212.835 226.506 211.391 226.506C209.736 226.506 207.839 227.065 206.037 227.976C204.23 228.889 202.482 230.175 201.127 231.672C200.868 231.958 200.616 232.265 200.396 232.735C200.181 233.197 200.008 233.794 199.862 234.66C199.572 236.384 199.373 239.275 199.229 244.508C198.939 254.989 198.86 274.984 198.727 314.113C198.6 351.076 198.468 371.982 198.866 383.936C199.065 389.906 199.398 393.682 199.94 396.119C200.486 398.567 201.266 399.77 202.438 400.457C202.906 400.732 203.414 400.911 203.94 401.066C204.204 401.143 204.48 401.216 204.76 401.291C205.042 401.367 205.332 401.447 205.635 401.537C206.339 401.748 207.546 401.909 209.243 402.034C210.955 402.16 213.205 402.251 216.022 402.31C221.658 402.426 229.58 402.41 240.029 402.266C257.892 402.019 267.516 401.779 273.628 400.629C276.701 400.051 278.912 399.239 280.85 398.068C282.78 396.903 284.413 395.396 286.338 393.472C287.663 392.146 289.002 390.525 290.096 388.978C291.182 387.441 292.054 385.937 292.413 384.85C292.935 383.269 293.316 382.477 293.797 382.049C294.244 381.651 294.852 381.506 296.078 381.506C296.681 381.506 297.133 381.532 297.477 381.594C297.819 381.656 298.012 381.748 298.132 381.85C298.362 382.045 298.5 382.433 298.5 383.489C298.5 383.793 298.422 384.39 298.267 385.244C298.114 386.085 297.892 387.141 297.621 388.342C297.079 390.743 296.34 393.712 295.554 396.681C294.768 399.65 293.937 402.615 293.209 405.009C292.474 407.427 291.862 409.204 291.519 409.847C291.434 410.005 291.344 410.122 291.147 410.236C290.927 410.364 290.552 410.498 289.873 410.621C288.514 410.867 286.105 411.039 281.688 411.153C272.869 411.381 256.183 411.379 224.236 411.334C203.089 411.305 186.35 411.192 174.85 411.009C169.099 410.917 164.662 410.808 161.639 410.684C160.126 410.621 158.974 410.556 158.19 410.486C157.797 410.452 157.507 410.417 157.315 410.384C157.276 410.377 157.243 410.367 157.216 410.361C156.983 409.951 156.895 409.55 156.923 409.165C156.954 408.736 157.13 408.29 157.47 407.846C158.158 406.948 159.486 406.1 161.393 405.529V405.528C163.713 404.832 166.9 402.967 168.521 401.347L171.5 398.367V233.847Z" fill="#E0A386" stroke="#E0A386"/>
<path d="M285.519 221.844C288.438 221.784 292.297 221.771 296.389 221.822L310.934 222.001L319.718 247.17C324.613 261.195 331.12 279.871 334.177 288.67C337.234 297.471 341.47 309.621 343.589 315.671C345.708 321.72 350.845 336.569 355.003 348.668C359.16 360.765 363.229 372.477 364.041 374.69V374.691C366.226 380.637 371.335 386.337 376.531 388.564C378.336 389.338 379.333 389.882 379.861 390.417C380.111 390.67 380.244 390.912 380.311 391.17C380.379 391.437 380.385 391.757 380.325 392.18V392.181L380.064 394.01L325.5 394.533V392.599C325.5 391.724 325.676 391.198 326.084 390.778C326.525 390.324 327.292 389.931 328.641 389.486C333.264 387.96 336.5 383.891 336.5 379.451C336.5 378.942 336.374 378.133 336.167 377.14C335.957 376.134 335.654 374.9 335.282 373.525C334.538 370.773 333.514 367.435 332.387 364.172C330.139 357.666 326.725 347.731 324.798 342.094L321.296 331.844L321.181 331.506H262.825L262.709 331.842L260.198 339.092C258.817 343.08 255.182 353.539 252.118 362.335C250.448 367.132 249.112 371.343 248.238 374.509C247.802 376.091 247.48 377.42 247.288 378.435C247.192 378.942 247.128 379.379 247.1 379.735C247.073 380.072 247.072 380.397 247.146 380.644C248.309 384.499 251.91 387.299 256.987 388.517C258.104 388.785 258.948 389.004 259.593 389.221C260.241 389.44 260.645 389.644 260.907 389.862C261.376 390.252 261.5 390.771 261.5 392.106V394.506H218.5V392.025C218.5 390.817 218.636 390.194 218.936 389.797C219.23 389.408 219.76 389.136 220.867 388.87C225.759 387.694 230.827 384.691 233.553 381.338L233.81 381.013C235.694 378.543 237.083 376.177 239.784 369.464C242.482 362.761 246.503 351.684 253.643 331.776C267.229 293.89 275.687 270.187 280.748 255.714C283.278 248.479 284.961 243.546 286.012 240.3C286.537 238.678 286.905 237.472 287.143 236.608C287.261 236.176 287.35 235.825 287.408 235.546C287.465 235.277 287.5 235.046 287.5 234.871C287.5 231.553 285.582 228.795 282.199 227.046H282.198C280.777 226.311 279.88 225.188 279.588 224.199C279.443 223.706 279.454 223.271 279.588 222.929C279.718 222.598 279.982 222.307 280.441 222.117L280.44 222.116C280.431 222.12 280.456 222.111 280.543 222.095C280.621 222.081 280.726 222.067 280.86 222.052C281.128 222.023 281.491 221.994 281.939 221.968C282.836 221.916 284.058 221.874 285.519 221.844Z" fill="#E0A386" stroke="#E0A386"/>
<path d="M292.663 252.235C292.711 252.313 292.773 252.426 292.845 252.586C292.962 252.842 293.088 253.165 293.239 253.556C293.897 255.266 299.528 271.511 305.753 289.669L316.843 322.013L292.616 322.273C285.765 322.347 279.491 322.367 274.901 322.339C272.606 322.324 270.734 322.298 269.423 322.261C268.767 322.243 268.257 322.222 267.906 322.199C267.88 322.197 267.856 322.194 267.833 322.192C267.862 322.069 267.899 321.919 267.948 321.741C268.116 321.123 268.395 320.206 268.79 318.978C269.578 316.524 270.82 312.85 272.542 307.883C275.984 297.951 281.338 282.86 288.801 262.046C289.835 259.161 290.611 257.001 291.213 255.427C291.821 253.839 292.235 252.893 292.542 252.407C292.59 252.332 292.63 252.276 292.663 252.235ZM267.453 322.154C267.454 322.154 267.455 322.154 267.458 322.155H267.456C267.454 322.155 267.453 322.154 267.452 322.154H267.453Z" fill="white" stroke="#F2C7B7"/>
</svg>
