<svg width="100%" height="100%" viewBox="0 0 1440 320" preserveAspectRatio="none" xmlns="http://www.w3.org/2000/svg">
  <defs>
    <linearGradient id="gradient1" x1="0%" y1="0%" x2="100%" y2="100%">
      <stop offset="0%" style="stop-color:#fdfdfd;stop-opacity:1" />
      <stop offset="100%" style="stop-color:#f0f7f8;stop-opacity:1" />
    </linearGradient>
    <linearGradient id="gradient2" x1="0%" y1="0%" x2="100%" y2="100%">
      <stop offset="0%" style="stop-color:#e0f2f7;stop-opacity:0.8" />
      <stop offset="100%" style="stop-color:#f8fcff;stop-opacity:0.8" />
    </linearGradient>
    <linearGradient id="gradient3" x1="0%" y1="0%" x2="100%" y2="100%">
      <stop offset="0%" style="stop-color:#d9eef2;stop-opacity:0.6" />
      <stop offset="100%" style="stop-color:#eaf2f5;stop-opacity:0.6" />
    </linearGradient>
  </defs>

  <rect width="100%" height="100%" fill="url(#gradient1)"/>

  <path fill="url(#gradient2)" fill-opacity="0.8" d="M0,224L48,218.7C96,213,192,203,288,192C384,181,480,171,576,176C672,181,768,203,864,208C960,213,1056,203,1152,192C1248,181,1344,171,1392,165.3L1440,160L1440,320L1392,320C1344,320,1248,320,1152,320C1056,320,960,320,864,320C768,320,672,320,576,320C480,320,384,320,288,320C192,320,96,320,48,320L0,320Z"></path>

  <path fill="url(#gradient3)" fill-opacity="0.6" d="M0,128L48,112C96,96,192,64,288,74.7C384,85,480,139,576,149.3C672,160,768,128,864,122.7C960,117,1056,133,1152,144C1248,155,1344,160,1392,162.7L1440,165.3L1440,0L1392,0C1344,0,1248,0,1152,0C1056,0,960,0,864,0C768,0,672,0,576,0C480,0,384,0,288,0C192,0,96,0,48,0L0,0Z"></path>
</svg>